solid diqueMixto
facet normal 5.4040302864109e-017 -1.0 1.70588291907586e-032
   outer loop
      vertex 20.47193495505 -0.31746803764376 -2.20382506213994e-016
      vertex 17.89193495505 -0.31746803764376 0.7
      vertex 16.49193495505 -0.31746803764376 -3.10621433655527e-016
   endloop
endfacet
facet normal 5.4040302864109e-017 -1.0 1.70588291907586e-032
   outer loop
      vertex 17.89193495505 -0.31746803764376 0.7
      vertex 20.47193495505 -0.31746803764376 -2.20382506213994e-016
      vertex 19.07193495505 -0.31746803764376 0.7
   endloop
endfacet
facet normal -5.4040302864109e-017 1.0 -1.70588291907586e-032
   outer loop
      vertex 17.89193495505 2.18253196235624 0.7
      vertex 20.47193495505 2.18253196235624 -2.20382506213994e-016
      vertex 16.49193495505 2.18253196235624 -3.10621433655527e-016
   endloop
endfacet
facet normal -5.4040302864109e-017 1.0 -1.70588291907586e-032
   outer loop
      vertex 20.47193495505 2.18253196235624 -2.20382506213994e-016
      vertex 17.89193495505 2.18253196235624 0.7
      vertex 19.07193495505 2.18253196235624 0.7
   endloop
endfacet
facet normal 2.26730973471188e-017 -1.58335681432528e-032 -1.0
   outer loop
      vertex 20.47193495505 2.18253196235624 -2.20382506213994e-016
      vertex 16.49193495505 -0.31746803764376 -3.10621433655527e-016
      vertex 16.49193495505 2.18253196235624 -3.10621433655527e-016
   endloop
endfacet
facet normal 2.26730973471188e-017 -1.58335681432528e-032 -1.0
   outer loop
      vertex 16.49193495505 -0.31746803764376 -3.10621433655527e-016
      vertex 20.47193495505 2.18253196235624 -2.20382506213994e-016
      vertex 20.47193495505 -0.31746803764376 -2.20382506213994e-016
   endloop
endfacet
facet normal 0.447213595499958 2.41675581457649e-017 0.894427190999916
   outer loop
      vertex 20.47193495505 -0.31746803764376 -2.20382506213994e-016
      vertex 19.07193495505 2.18253196235624 0.7
      vertex 19.07193495505 -0.31746803764376 0.7
   endloop
endfacet
facet normal 0.447213595499958 2.41675581457649e-017 0.894427190999916
   outer loop
      vertex 19.07193495505 2.18253196235624 0.7
      vertex 20.47193495505 -0.31746803764376 -2.20382506213994e-016
      vertex 20.47193495505 2.18253196235624 -2.20382506213994e-016
   endloop
endfacet
facet normal -7.64736673233326e-017 1.29261690474766e-032 1.0
   outer loop
      vertex 19.07193495505 -0.31746803764376 0.7
      vertex 17.89193495505 2.18253196235624 0.7
      vertex 17.89193495505 -0.31746803764376 0.7
   endloop
endfacet
facet normal -7.64736673233326e-017 1.29261690474766e-032 1.0
   outer loop
      vertex 17.89193495505 2.18253196235624 0.7
      vertex 19.07193495505 -0.31746803764376 0.7
      vertex 19.07193495505 2.18253196235624 0.7
   endloop
endfacet
facet normal -0.447213595499958 -2.41675581457649e-017 0.894427190999916
   outer loop
      vertex 17.89193495505 -0.31746803764376 0.7
      vertex 16.49193495505 2.18253196235624 -3.10621433655527e-016
      vertex 16.49193495505 -0.31746803764376 -3.10621433655527e-016
   endloop
endfacet
facet normal -0.447213595499958 -2.41675581457649e-017 0.894427190999916
   outer loop
      vertex 16.49193495505 2.18253196235624 -3.10621433655527e-016
      vertex 17.89193495505 -0.31746803764376 0.7
      vertex 17.89193495505 2.18253196235624 0.7
   endloop
endfacet
endsolid diqueMixto
