solid diqueMixto
facet normal -0.447213595499958 0.0 -0.894427190999916
   outer loop
      vertex 20.47193495505 2.18253196235624 -2.20382506213994e-016
      vertex 19.07193495505 -0.31746803764376 0.7
      vertex 19.07193495505 2.18253196235624 0.7
   endloop
endfacet
facet normal -0.447213595499958 0.0 -0.894427190999916
   outer loop
      vertex 19.07193495505 -0.31746803764376 0.7
      vertex 20.47193495505 2.18253196235624 -2.20382506213994e-016
      vertex 20.47193495505 -0.31746803764376 -2.20382506213994e-016
   endloop
endfacet
facet normal 0.0 -1.0 0.0
   outer loop
      vertex 19.07193495505 -0.31746803764376 0.811803398874989
      vertex 20.47193495505 -0.31746803764376 -2.20382506213994e-016
      vertex 20.6955417527999 -0.31746803764376 -2.20382506213994e-016
   endloop
endfacet
facet normal 0.0 -1.0 0.0
   outer loop
      vertex 20.47193495505 -0.31746803764376 -2.20382506213994e-016
      vertex 19.07193495505 -0.31746803764376 0.811803398874989
      vertex 19.07193495505 -0.31746803764376 0.7
   endloop
endfacet
facet normal 0.447213595499958 0.0 0.894427190999916
   outer loop
      vertex 20.6955417527999 -0.31746803764376 -2.20382506213994e-016
      vertex 19.07193495505 2.18253196235624 0.811803398874989
      vertex 19.07193495505 -0.31746803764376 0.811803398874989
   endloop
endfacet
facet normal 0.447213595499958 0.0 0.894427190999916
   outer loop
      vertex 19.07193495505 2.18253196235624 0.811803398874989
      vertex 20.6955417527999 -0.31746803764376 -2.20382506213994e-016
      vertex 20.6955417527999 2.18253196235624 -2.20382506213994e-016
   endloop
endfacet
facet normal 0.0 1.0 0.0
   outer loop
      vertex 19.07193495505 2.18253196235624 0.7
      vertex 20.6955417527999 2.18253196235624 -2.20382506213994e-016
      vertex 20.47193495505 2.18253196235624 -2.20382506213994e-016
   endloop
endfacet
facet normal 0.0 1.0 0.0
   outer loop
      vertex 20.6955417527999 2.18253196235624 -2.20382506213994e-016
      vertex 19.07193495505 2.18253196235624 0.7
      vertex 19.07193495505 2.18253196235624 0.811803398874989
   endloop
endfacet
facet normal -1.0 0.0 0.0
   outer loop
      vertex 19.07193495505 2.18253196235624 0.811803398874989
      vertex 19.07193495505 -0.31746803764376 0.7
      vertex 19.07193495505 -0.31746803764376 0.811803398874989
   endloop
endfacet
facet normal -1.0 0.0 0.0
   outer loop
      vertex 19.07193495505 -0.31746803764376 0.7
      vertex 19.07193495505 2.18253196235624 0.811803398874989
      vertex 19.07193495505 2.18253196235624 0.7
   endloop
endfacet
facet normal 0.0 0.0 -1.0
   outer loop
      vertex 20.6955417527999 2.18253196235624 -2.20382506213994e-016
      vertex 20.47193495505 -0.31746803764376 -2.20382506213994e-016
      vertex 20.47193495505 2.18253196235624 -2.20382506213994e-016
   endloop
endfacet
facet normal 0.0 0.0 -1.0
   outer loop
      vertex 20.47193495505 -0.31746803764376 -2.20382506213994e-016
      vertex 20.6955417527999 2.18253196235624 -2.20382506213994e-016
      vertex 20.6955417527999 -0.31746803764376 -2.20382506213994e-016
   endloop
endfacet
facet normal 0.447213595499958 1.04964537339676e-017 -0.894427190999916
   outer loop
      vertex 17.89193495505 2.18253196235624 0.7
      vertex 16.49193495505 -0.31746803764376 -3.10621433655527e-016
      vertex 16.49193495505 2.18253196235624 -3.10621433655527e-016
   endloop
endfacet
facet normal 0.447213595499958 1.04964537339676e-017 -0.894427190999916
   outer loop
      vertex 16.49193495505 -0.31746803764376 -3.10621433655527e-016
      vertex 17.89193495505 2.18253196235624 0.7
      vertex 17.89193495505 -0.31746803764376 0.7
   endloop
endfacet
facet normal 0.0 0.0 -1.0
   outer loop
      vertex 16.49193495505 2.18253196235624 -3.10621433655527e-016
      vertex 16.2683281573 -0.31746803764376 -3.10621433655527e-016
      vertex 16.2683281573 2.18253196235624 -3.10621433655527e-016
   endloop
endfacet
facet normal 0.0 0.0 -1.0
   outer loop
      vertex 16.2683281573 -0.31746803764376 -3.10621433655527e-016
      vertex 16.49193495505 2.18253196235624 -3.10621433655527e-016
      vertex 16.49193495505 -0.31746803764376 -3.10621433655527e-016
   endloop
endfacet
facet normal 0.0 -1.0 0.0
   outer loop
      vertex 18.0319349550499 -0.31746803764376 0.811803398874989
      vertex 17.89193495505 -0.31746803764376 0.7
      vertex 18.0319349550499 -0.31746803764376 0.7
   endloop
endfacet
facet normal 0.0 -1.0 0.0
   outer loop
      vertex 17.89193495505 -0.31746803764376 0.7
      vertex 16.2683281573 -0.31746803764376 -3.10621433655527e-016
      vertex 16.49193495505 -0.31746803764376 -3.10621433655527e-016
   endloop
endfacet
facet normal 0.0 -1.0 0.0
   outer loop
      vertex 16.2683281573 -0.31746803764376 -3.10621433655527e-016
      vertex 17.89193495505 -0.31746803764376 0.7
      vertex 17.89193495505 -0.31746803764376 0.811803398874989
   endloop
endfacet
facet normal 0.0 -1.0 0.0
   outer loop
      vertex 17.89193495505 -0.31746803764376 0.811803398874989
      vertex 17.89193495505 -0.31746803764376 0.7
      vertex 18.0319349550499 -0.31746803764376 0.811803398874989
   endloop
endfacet
facet normal -0.447213595499958 0.0 0.894427190999916
   outer loop
      vertex 17.89193495505 -0.31746803764376 0.811803398874989
      vertex 16.2683281573 2.18253196235624 -3.10621433655527e-016
      vertex 16.2683281573 -0.31746803764376 -3.10621433655527e-016
   endloop
endfacet
facet normal -0.447213595499958 0.0 0.894427190999916
   outer loop
      vertex 16.2683281573 2.18253196235624 -3.10621433655527e-016
      vertex 17.89193495505 -0.31746803764376 0.811803398874989
      vertex 17.89193495505 2.18253196235624 0.811803398874989
   endloop
endfacet
facet normal 0.0 1.0 0.0
   outer loop
      vertex 17.89193495505 2.18253196235624 0.811803398874989
      vertex 16.49193495505 2.18253196235624 -3.10621433655527e-016
      vertex 16.2683281573 2.18253196235624 -3.10621433655527e-016
   endloop
endfacet
facet normal 0.0 1.0 0.0
   outer loop
      vertex 16.49193495505 2.18253196235624 -3.10621433655527e-016
      vertex 17.89193495505 2.18253196235624 0.811803398874989
      vertex 17.89193495505 2.18253196235624 0.7
   endloop
endfacet
facet normal 0.0 1.0 0.0
   outer loop
      vertex 17.89193495505 2.18253196235624 0.7
      vertex 17.89193495505 2.18253196235624 0.811803398874989
      vertex 18.0319349550499 2.18253196235624 0.7
   endloop
endfacet
facet normal 0.0 1.0 0.0
   outer loop
      vertex 18.0319349550499 2.18253196235624 0.7
      vertex 17.89193495505 2.18253196235624 0.811803398874989
      vertex 18.0319349550499 2.18253196235624 0.811803398874989
   endloop
endfacet
facet normal 1.0 0.0 0.0
   outer loop
      vertex 18.0319349550499 2.18253196235624 0.7
      vertex 18.0319349550499 -0.31746803764376 0.811803398874989
      vertex 18.0319349550499 -0.31746803764376 0.7
   endloop
endfacet
facet normal 1.0 0.0 0.0
   outer loop
      vertex 18.0319349550499 -0.31746803764376 0.811803398874989
      vertex 18.0319349550499 2.18253196235624 0.7
      vertex 18.0319349550499 2.18253196235624 0.811803398874989
   endloop
endfacet
facet normal 0.0 0.0 1.0
   outer loop
      vertex 18.0319349550499 -0.31746803764376 0.811803398874989
      vertex 17.89193495505 2.18253196235624 0.811803398874989
      vertex 17.89193495505 -0.31746803764376 0.811803398874989
   endloop
endfacet
facet normal 0.0 0.0 1.0
   outer loop
      vertex 17.89193495505 2.18253196235624 0.811803398874989
      vertex 18.0319349550499 -0.31746803764376 0.811803398874989
      vertex 18.0319349550499 2.18253196235624 0.811803398874989
   endloop
endfacet
facet normal 0.0 0.0 -1.0
   outer loop
      vertex 18.0319349550499 2.18253196235624 0.7
      vertex 17.89193495505 -0.31746803764376 0.7
      vertex 17.89193495505 2.18253196235624 0.7
   endloop
endfacet
facet normal 0.0 0.0 -1.0
   outer loop
      vertex 17.89193495505 -0.31746803764376 0.7
      vertex 18.0319349550499 2.18253196235624 0.7
      vertex 18.0319349550499 -0.31746803764376 0.7
   endloop
endfacet
endsolid diqueMixto
