solid diqueMixto
facet normal 0.0 0.0 -1.0
   outer loop
      vertex 19.07193495505 2.18253196235624 0.699999999999999
      vertex 18.03193495505 -0.31746803764376 0.699999999999999
      vertex 18.03193495505 2.18253196235624 0.699999999999999
   endloop
endfacet
facet normal 0.0 0.0 -1.0
   outer loop
      vertex 18.03193495505 -0.31746803764376 0.699999999999999
      vertex 19.07193495505 2.18253196235624 0.699999999999999
      vertex 19.07193495505 -0.31746803764376 0.699999999999999
   endloop
endfacet
facet normal 0.0 0.0 1.0
   outer loop
      vertex 19.07193495505 -0.31746803764376 0.999999999999999
      vertex 18.03193495505 2.18253196235624 0.999999999999999
      vertex 18.03193495505 -0.31746803764376 0.999999999999999
   endloop
endfacet
facet normal 0.0 0.0 1.0
   outer loop
      vertex 18.03193495505 2.18253196235624 0.999999999999999
      vertex 19.07193495505 -0.31746803764376 0.999999999999999
      vertex 19.07193495505 2.18253196235624 0.999999999999999
   endloop
endfacet
facet normal -0.0 -1.0 -0.0
   outer loop
      vertex 19.07193495505 -0.31746803764376 0.999999999999999
      vertex 18.03193495505 -0.31746803764376 0.699999999999999
      vertex 19.07193495505 -0.31746803764376 0.699999999999999
   endloop
endfacet
facet normal -0.0 -1.0 -0.0
   outer loop
      vertex 18.03193495505 -0.31746803764376 0.699999999999999
      vertex 19.07193495505 -0.31746803764376 0.999999999999999
      vertex 18.03193495505 -0.31746803764376 0.999999999999999
   endloop
endfacet
facet normal -1.0 0.0 0.0
   outer loop
      vertex 18.03193495505 2.18253196235624 0.999999999999999
      vertex 18.03193495505 -0.31746803764376 0.699999999999999
      vertex 18.03193495505 -0.31746803764376 0.999999999999999
   endloop
endfacet
facet normal -1.0 0.0 0.0
   outer loop
      vertex 18.03193495505 -0.31746803764376 0.699999999999999
      vertex 18.03193495505 2.18253196235624 0.999999999999999
      vertex 18.03193495505 2.18253196235624 0.699999999999999
   endloop
endfacet
facet normal 0.0 1.0 0.0
   outer loop
      vertex 18.03193495505 2.18253196235624 0.999999999999999
      vertex 19.07193495505 2.18253196235624 0.699999999999999
      vertex 18.03193495505 2.18253196235624 0.699999999999999
   endloop
endfacet
facet normal 0.0 1.0 0.0
   outer loop
      vertex 19.07193495505 2.18253196235624 0.699999999999999
      vertex 18.03193495505 2.18253196235624 0.999999999999999
      vertex 19.07193495505 2.18253196235624 0.999999999999999
   endloop
endfacet
facet normal 1.0 0.0 0.0
   outer loop
      vertex 19.07193495505 2.18253196235624 0.699999999999999
      vertex 19.07193495505 -0.31746803764376 0.999999999999999
      vertex 19.07193495505 -0.31746803764376 0.699999999999999
   endloop
endfacet
facet normal 1.0 0.0 0.0
   outer loop
      vertex 19.07193495505 -0.31746803764376 0.999999999999999
      vertex 19.07193495505 2.18253196235624 0.699999999999999
      vertex 19.07193495505 2.18253196235624 0.999999999999999
   endloop
endfacet
endsolid diqueMixto
