solid diqueMixto
facet normal -0.447213595499958 -0.0 -0.894427190999916
   outer loop
      vertex 20.6955417527999 2.18253196235624 -2.20382506213994e-016
      vertex 19.07193495505 -0.31746803764376 0.811803398874989
      vertex 19.07193495505 2.18253196235624 0.811803398874989
   endloop
endfacet
facet normal -0.447213595499958 -0.0 -0.894427190999916
   outer loop
      vertex 19.07193495505 -0.31746803764376 0.811803398874989
      vertex 20.6955417527999 2.18253196235624 -2.20382506213994e-016
      vertex 20.6955417527999 -0.31746803764376 -2.20382506213994e-016
   endloop
endfacet
facet normal 0.447213595499958 -1.81938531388771e-016 0.894427190999916
   outer loop
      vertex 20.9638699100999 -0.31746803764376 -2.20382506213994e-016
      vertex 19.07193495505 2.18253196235624 0.945967477524977
      vertex 19.07193495505 -0.31746803764376 0.945967477524976
   endloop
endfacet
facet normal 0.447213595499958 -1.81938531388771e-016 0.894427190999916
   outer loop
      vertex 19.07193495505 2.18253196235624 0.945967477524977
      vertex 20.9638699100999 -0.31746803764376 -2.20382506213994e-016
      vertex 20.9638699100999 2.18253196235624 9.52723550525931e-016
   endloop
endfacet
facet normal 0.0 -1.0 0.0
   outer loop
      vertex 19.07193495505 -0.31746803764376 0.945967477524976
      vertex 20.6955417527999 -0.31746803764376 -2.20382506213994e-016
      vertex 20.9638699100999 -0.31746803764376 -2.20382506213994e-016
   endloop
endfacet
facet normal 0.0 -1.0 0.0
   outer loop
      vertex 20.6955417527999 -0.31746803764376 -2.20382506213994e-016
      vertex 19.07193495505 -0.31746803764376 0.945967477524976
      vertex 19.07193495505 -0.31746803764376 0.811803398874989
   endloop
endfacet
facet normal 0.0 1.0 0.0
   outer loop
      vertex 19.07193495505 2.18253196235624 0.811803398874989
      vertex 20.9638699100999 2.18253196235624 9.52723550525931e-016
      vertex 20.6955417527999 2.18253196235624 -2.20382506213994e-016
   endloop
endfacet
facet normal 0.0 1.0 0.0
   outer loop
      vertex 20.9638699100999 2.18253196235624 9.52723550525931e-016
      vertex 19.07193495505 2.18253196235624 0.811803398874989
      vertex 19.07193495505 2.18253196235624 0.945967477524977
   endloop
endfacet
facet normal -1.0 0.0 0.0
   outer loop
      vertex 19.07193495505 2.18253196235624 0.945967477524977
      vertex 19.07193495505 -0.31746803764376 0.811803398874989
      vertex 19.07193495505 -0.31746803764376 0.945967477524976
   endloop
endfacet
facet normal -1.0 0.0 0.0
   outer loop
      vertex 19.07193495505 -0.31746803764376 0.811803398874989
      vertex 19.07193495505 2.18253196235624 0.945967477524977
      vertex 19.07193495505 2.18253196235624 0.811803398874989
   endloop
endfacet
facet normal 2.18595407307268e-015 2.34621211347985e-016 -1.0
   outer loop
      vertex 20.9638699100999 2.18253196235624 9.52723550525931e-016
      vertex 20.6955417527999 -0.31746803764376 -2.20382506213994e-016
      vertex 20.6955417527999 2.18253196235624 -2.20382506213994e-016
   endloop
endfacet
facet normal 2.18595407307268e-015 2.34621211347985e-016 -1.0
   outer loop
      vertex 20.6955417527999 -0.31746803764376 -2.20382506213994e-016
      vertex 20.9638699100999 2.18253196235624 9.52723550525931e-016
      vertex 20.9638699100999 -0.31746803764376 -2.20382506213994e-016
   endloop
endfacet
facet normal 0.0 -1.0 0.0
   outer loop
      vertex 18.03193495505 -0.31746803764376 0.945967477524976
      vertex 17.89193495505 -0.31746803764376 0.811803398874989
      vertex 18.03193495505 -0.31746803764376 0.811803398874989
   endloop
endfacet
facet normal 0.0 -1.0 0.0
   outer loop
      vertex 17.89193495505 -0.31746803764376 0.811803398874989
      vertex 16.0 -0.31746803764376 -2.20382506213994e-016
      vertex 16.2683281573 -0.31746803764376 -2.20382506213994e-016
   endloop
endfacet
facet normal 0.0 -1.0 0.0
   outer loop
      vertex 16.0 -0.31746803764376 -2.20382506213994e-016
      vertex 17.89193495505 -0.31746803764376 0.811803398874989
      vertex 17.89193495505 -0.31746803764376 0.945967477524976
   endloop
endfacet
facet normal 0.0 -1.0 0.0
   outer loop
      vertex 17.89193495505 -0.31746803764376 0.945967477524976
      vertex 17.89193495505 -0.31746803764376 0.811803398874989
      vertex 18.03193495505 -0.31746803764376 0.945967477524976
   endloop
endfacet
facet normal 0.447213595499958 0.0 -0.894427190999916
   outer loop
      vertex 17.89193495505 2.18253196235624 0.811803398874989
      vertex 16.2683281573 -0.31746803764376 -2.20382506213994e-016
      vertex 16.2683281573 2.18253196235624 -2.20382506213994e-016
   endloop
endfacet
facet normal 0.447213595499958 0.0 -0.894427190999916
   outer loop
      vertex 16.2683281573 -0.31746803764376 -2.20382506213994e-016
      vertex 17.89193495505 2.18253196235624 0.811803398874989
      vertex 17.89193495505 -0.31746803764376 0.811803398874989
   endloop
endfacet
facet normal 0.0 1.0 0.0
   outer loop
      vertex 16.0 2.18253196235624 9.52723550525931e-016
      vertex 17.89193495505 2.18253196235624 0.811803398874989
      vertex 16.2683281573 2.18253196235624 -2.20382506213994e-016
   endloop
endfacet
facet normal 0.0 1.0 0.0
   outer loop
      vertex 17.89193495505 2.18253196235624 0.811803398874989
      vertex 16.0 2.18253196235624 9.52723550525931e-016
      vertex 17.89193495505 2.18253196235624 0.945967477524977
   endloop
endfacet
facet normal 0.0 1.0 0.0
   outer loop
      vertex 17.89193495505 2.18253196235624 0.811803398874989
      vertex 17.89193495505 2.18253196235624 0.945967477524977
      vertex 18.03193495505 2.18253196235624 0.811803398874989
   endloop
endfacet
facet normal 0.0 1.0 0.0
   outer loop
      vertex 18.03193495505 2.18253196235624 0.811803398874989
      vertex 17.89193495505 2.18253196235624 0.945967477524977
      vertex 18.03193495505 2.18253196235624 0.945967477524977
   endloop
endfacet
facet normal -0.447213595499958 -2.72907797083156e-016 0.894427190999916
   outer loop
      vertex 17.89193495505 -0.31746803764376 0.945967477524976
      vertex 16.0 2.18253196235624 9.52723550525931e-016
      vertex 16.0 -0.31746803764376 -2.20382506213994e-016
   endloop
endfacet
facet normal -0.447213595499958 -2.72907797083156e-016 0.894427190999916
   outer loop
      vertex 16.0 2.18253196235624 9.52723550525931e-016
      vertex 17.89193495505 -0.31746803764376 0.945967477524976
      vertex 17.89193495505 2.18253196235624 0.945967477524977
   endloop
endfacet
facet normal -2.18595407307268e-015 2.34621211347985e-016 -1.0
   outer loop
      vertex 16.2683281573 2.18253196235624 -2.20382506213994e-016
      vertex 16.0 -0.31746803764376 -2.20382506213994e-016
      vertex 16.0 2.18253196235624 9.52723550525931e-016
   endloop
endfacet
facet normal -2.18595407307268e-015 2.34621211347985e-016 -1.0
   outer loop
      vertex 16.0 -0.31746803764376 -2.20382506213994e-016
      vertex 16.2683281573 2.18253196235624 -2.20382506213994e-016
      vertex 16.2683281573 -0.31746803764376 -2.20382506213994e-016
   endloop
endfacet
facet normal 1.0 0.0 0.0
   outer loop
      vertex 18.03193495505 2.18253196235624 0.811803398874989
      vertex 18.03193495505 -0.31746803764376 0.945967477524976
      vertex 18.03193495505 -0.31746803764376 0.811803398874989
   endloop
endfacet
facet normal 1.0 0.0 0.0
   outer loop
      vertex 18.03193495505 -0.31746803764376 0.945967477524976
      vertex 18.03193495505 2.18253196235624 0.811803398874989
      vertex 18.03193495505 2.18253196235624 0.945967477524977
   endloop
endfacet
facet normal 0.0 -1.44382283906452e-016 1.0
   outer loop
      vertex 18.03193495505 -0.31746803764376 0.945967477524976
      vertex 17.89193495505 2.18253196235624 0.945967477524977
      vertex 17.89193495505 -0.31746803764376 0.945967477524976
   endloop
endfacet
facet normal 0.0 -1.44382283906452e-016 1.0
   outer loop
      vertex 17.89193495505 2.18253196235624 0.945967477524977
      vertex 18.03193495505 -0.31746803764376 0.945967477524976
      vertex 18.03193495505 2.18253196235624 0.945967477524977
   endloop
endfacet
facet normal 0.0 0.0 -1.0
   outer loop
      vertex 18.03193495505 2.18253196235624 0.811803398874989
      vertex 17.89193495505 -0.31746803764376 0.811803398874989
      vertex 17.89193495505 2.18253196235624 0.811803398874989
   endloop
endfacet
facet normal 0.0 0.0 -1.0
   outer loop
      vertex 17.89193495505 -0.31746803764376 0.811803398874989
      vertex 18.03193495505 2.18253196235624 0.811803398874989
      vertex 18.03193495505 -0.31746803764376 0.811803398874989
   endloop
endfacet
endsolid diqueMixto
